<?xml version="1.0" standalone="no"?><!DOCTYPE svg PUBLIC "-//W3C//DTD SVG 1.1//EN" "http://www.w3.org/Graphics/SVG/1.1/DTD/svg11.dtd"><svg t="1748920164446" class="icon" viewBox="0 0 1024 1024" version="1.1" xmlns="http://www.w3.org/2000/svg" p-id="7760" xmlns:xlink="http://www.w3.org/1999/xlink" width="200" height="200"><path d="M918.121789 166.965376H105.877188c-54.527785 0-98.898253 44.389911-98.898254 98.933045V758.125115c0 54.513459 44.369445 98.911556 98.898254 98.911556h812.244601c54.528808 0 98.898253-44.398097 98.898253-98.911556V265.897398c0-54.542111-44.369445-98.932022-98.898253-98.932022z m0 63.686357c4.649894 0 9.087964 0.958836 13.159692 2.620682L522.094895 553.692481 109.104689 230.651733h809.0171zM121.432434 793.34929l273.598785-192.891809c9.595523-6.763017 11.877491-20.007643 5.114474-29.58884-6.763017-9.566871-19.97899-11.877491-29.58884-5.114474L74.766695 774.29946c-2.536771-4.875021-4.114706-10.313883-4.114706-16.175368V265.897398c0-3.529376 0.69073-6.889907 1.662869-10.124572l423.615174 331.354072a42.344326 42.344326 0 0 0 26.16384 9.018379c9.230203 0 18.472687-3.002374 26.165887-9.018379l405.086206-317.206892v488.204086c0 0.704033-0.183171 1.366111-0.211824 2.070144L677.338322 565.754167c-9.5945-6.763017-22.825822-4.452396-29.57349 5.114474-6.749714 9.581197-4.465699 22.825822 5.114474 29.58884l272.48543 192.131494c-2.339273 0.478906-4.749155 0.760315-7.241924 0.760315H121.432434z" fill="#2c2c2c" p-id="7761"></path></svg>